<svg xmlns="http://www.w3.org/2000/svg" width="690" height="270" viewBox="170 380 690 270" role="img" aria-label="Ritm">
  <defs>
    <mask id="ritm-wordmark-mask" maskUnits="userSpaceOnUse" x="160" y="370" width="710" height="290">
      <rect x="160" y="370" width="710" height="290" fill="black"/>
      <path fill="white" d="M182.688 390.347C202.756 389.965 223.243 390.382 243.316 390.422C282.881 390.501 323.406 386.209 356.027 413.707C381.781 435.417 383.996 479.55 361.99 504.488C344.512 524.365 315.216 530.108 289.737 531.519C288.174 531.911 287.013 532.159 285.427 532.432C296.111 534.327 323.561 539.025 331.851 543.32C370.669 563.428 358.771 611.145 395.815 635.464C346.437 635.558 306.493 637.81 285.241 584.851C278.622 568.356 272.34 540.798 253.804 534.627C254.229 562.452 257.002 589.533 238.704 612.206C229.23 623.8 215.971 631.683 201.259 634.468C196.09 635.441 187.942 636.004 182.485 636.561C183.548 554.854 181.895 472.228 182.688 390.347Z"/>
      <path fill="black" d="M254.008 398.499C265.846 398.408 273.608 400.233 283.185 407.605C294.996 416.698 302.911 435.232 304.261 449.803C306.326 472.102 303.621 494.233 289.451 512.166C278.311 524.319 270.167 526.778 253.828 526.351L254.008 398.499Z"/>
      <path fill="white" d="M629.987 501.495C634.439 472.949 663.571 453.942 691.554 459.135C717.669 463.982 726.95 478.341 733.268 502.335C733.851 502.26 733.838 502.28 734.383 502.073C735.163 492.952 740.958 481.883 747.103 475.164C766.862 453.559 803.467 453.171 824.551 473.379C832.554 481.152 838.145 491.07 840.653 501.942C843.01 512.289 841.865 532.855 842.082 544.276C842.659 574.688 841.526 606.075 842.279 636.398C841.15 636.393 840.021 636.36 838.894 636.299C823.857 635.62 808.428 631.731 796.809 621.704C776.016 603.761 774.898 585.417 775.294 560.27C775.534 545.065 777.571 513.776 766.961 502.86C763.672 499.476 759.069 497.082 754.295 497.043C730.823 496.853 735.802 542.561 735.44 557.507C735.177 568.388 736.434 575.518 734.037 587.156C731.793 598.455 726.298 608.852 718.226 617.07C703.308 632.291 688.216 636.211 667.509 636.422L667.444 557.222C667.469 543.892 667.762 528.854 666.704 515.498C666.365 511.225 663.68 506.041 660.776 502.999C657.707 499.784 652.273 496.746 647.918 497.141C618.176 499.838 632.532 565.762 627.915 585.793C625.07 598.136 620.435 608.463 611.915 616.882C596.358 632.254 581.77 635.835 561.089 636.118C561.334 612.171 561.446 588.223 561.424 564.274C561.405 547.617 559.829 526.17 563.355 510.378C570.707 477.448 596.689 459.319 629.033 458.836C629.275 471.637 629.525 488.844 628.804 501.378L629.987 501.495Z"/>
      <path fill="white" d="M526.167 390.449L532.666 390.393C532.979 402.433 530.807 447.047 533.704 455.49C534.55 457.956 535.755 459.315 538.138 460.366C546.348 463.988 558 459.641 565.777 456.687L568.933 459.754C557.848 469.161 547.262 472.063 533.008 472.933C533.063 504.317 531.754 536.382 532.205 567.866C532.536 590.947 538.467 612.277 555.507 628.673L555.618 635.47C549.432 635.545 543.958 635.573 537.777 635.294C517.204 633.712 497.562 628.785 482.519 613.607C474.793 605.835 469.354 596.087 466.798 585.43C464.067 573.945 465.012 547.692 465.044 534.843L465.197 460.553C476.363 459.945 482.767 458.484 492.767 453.641C519.015 440.93 524.453 417.336 526.167 390.449Z"/>
      <path fill="white" d="M442.871 469.2L447.538 469.022L447.77 553.41C447.713 579.263 447.228 611.169 450.673 636.531C432.794 636.649 420.702 633.693 405.865 623.021C377.864 599.725 382.448 578.589 382.341 545.639C382.222 508.928 404.28 473.424 442.871 469.2Z"/>
      <path fill="white" d="M416.317 390.714C435.732 388.783 453.061 402.895 455.102 422.298C457.143 441.702 443.13 459.11 423.738 461.262C404.19 463.431 386.61 449.28 384.553 429.72C382.495 410.16 396.746 392.66 416.317 390.714Z"/>
    </mask>
  </defs>
  <rect x="160" y="370" width="710" height="290" fill="#ffffff" mask="url(#ritm-wordmark-mask)"/>
</svg>
